#!OML:ASF E:\motion texture\Top Level 1\Subject 1\Session 1\male.ASF
:FULLY-SPECIFIED
:DEGREES
223
root 17.1677 17.9439 2.38542 508.587 -80.3746 -502.239
lowerback 26.5831 26.1128 18.3149
upperback 9.50767 39.4626 12.9955
thorax -178.244 115.021 -4.87439
lowerneck 28.7806 31.3943 20.1752
upperneck -39.7195 77.5378 -47.0515
head 302.097 122.5 171.558
rclavicle -6.30147e-014 3.69739e-014
rhumerus 69.7868 -4.01673 102.866
rradius 109.988
rwrist -57.3603
rhand -18.575 -67.9436
rfingers 7.12502
rthumb 7.71535 97.7829
lclavicle -6.30147e-014 3.69739e-014
lhumerus 88.9089 -0.987947 -116.584
lradius 82.7006
lwrist 61.246
lhand -13.6566 58.5645
lfingers 7.12502
lthumb 12.4602 448.173
rfemur -8.49416 -3.45218 31.3061
rtibia 20.0198
rfoot -15.2065 -5.17717
rtoes 9.27813
lfemur -31.2542 5.74433 -11.7959
ltibia 39.5215
lfoot -7.40091 4.3481
ltoes -13.2589
224
root 17.0343 17.9376 2.37316 509.784 -80.1623 -503.369
lowerback 26.5199 26.2078 18.1117
upperback 9.53068 39.5391 12.9398
thorax -178.173 115.01 -4.77436
lowerneck 28.9154 31.5037 20.442
upperneck -39.4063 77.3797 -46.8951
head 301.731 122.798 171.537
rclavicle 1.54456e-013 1.11319e-014
rhumerus 68.7847 -3.65512 103.404
rradius 109.332
rwrist -57.265
rhand -18.7473 -67.961
rfingers 7.12502
rthumb 7.54903 97.8063
lclavicle 1.54456e-013 1.11319e-014
lhumerus 90.3559 -0.296972 -116.523
lradius 83.2088
lwrist 61.3819
lhand -13.4929 58.6504
lfingers 7.12502
lthumb 12.618 448.249
rfemur -8.08626 -3.28072 31.2884
rtibia 20.0203
rfoot -15.3062 -5.32041
rtoes 9.4458
lfemur -31.4495 5.75555 -11.8475
ltibia 37.932
lfoot -7.40887 4.55344
ltoes -13.5358
225
root 16.8996 17.9308 2.36094 510.876 -79.9597 -504.398
lowerback 26.4446 26.2984 17.9003
upperback 9.54926 39.606 12.8774
thorax -178.101 115.014 -4.67057
lowerneck 29.041 31.6018 20.6932
upperneck -39.0791 77.2185 -46.7175
head 301.342 123.05 171.472
rclavicle 3.99557e-014 -3.26007e-014
rhumerus 67.8239 -3.28592 103.931
rradius 108.645
rwrist -57.1727
rhand -18.9188 -67.9816
rfingers 7.12502
rthumb 7.38356 97.8327
lclavicle 3.99557e-014 -3.26007e-014
lhumerus 91.8317 0.390479 -116.44
lradius 83.7159
lwrist 61.5085
lhand -13.3159 58.7108
lfingers 7.12502
lthumb 12.7887 448.299
rfemur -7.68999 -3.11906 31.2657
rtibia 20.0571
rfoot -15.4051 -5.4538
rtoes 9.58505
lfemur -31.6079 5.73916 -11.8988
ltibia 36.351
lfoot -7.39691 4.72885
ltoes -13.8157
226
root 16.7634 17.9233 2.34876 511.867 -79.7692 -505.331
lowerback 26.3552 26.3845 17.6832
upperback 9.56136 39.6607 12.8073
thorax -178.029 115.034 -4.56444
lowerneck 29.1552 31.6877 20.9258
upperneck -38.7378 77.056 -46.5164
head 300.938 123.255 171.365
rclavicle 9.44227e-014 -2.22639e-014
rhumerus 66.9021 -2.91135 104.448
rradius 107.931
rwrist -57.0839
rhand -19.0817 -67.9987
rfingers 7.12502
rthumb 7.22624 97.8553
lclavicle 9.44227e-014 -2.22639e-014
lhumerus 93.3293 1.06771 -116.337
lradius 84.2209
lwrist 61.628
lhand -13.1275 58.7479
lfingers 7.12502
lthumb 12.9703 448.325
rfemur -7.30596 -2.97248 31.2366
rtibia 20.1352
rfoot -15.5036 -5.5739
rtoes 9.6878
lfemur -31.7276 5.6918 -11.9497
ltibia 34.7883
lfoot -7.36949 4.87083
ltoes -14.0978
227
root 16.6257 17.9153 2.33665 512.774 -79.5892 -506.184
lowerback 26.2535 26.4664 17.4601
upperback 9.56809 39.7051 12.7304
thorax -177.957 115.068 -4.45598
lowerneck 29.2577 31.7609 21.1392
upperneck -38.3842 76.8925 -46.2926
head 300.521 123.412 171.218
rclavicle -6.06293e-014 6.20208e-014
rhumerus 66.0215 -2.53203 104.956
rradius 107.199
rwrist -57.0168
rhand -19.2392 -67.9914
rfingers 7.12502
rthumb 7.07428 97.8532
lclavicle -6.06293e-014 6.20208e-014
lhumerus 94.8459 1.72955 -116.214
lradius 84.7184
lwrist 61.738
lhand -12.9288 58.7527
lfingers 7.12502
lthumb 13.1618 448.317
rfemur -6.93564 -2.84339 31.1997
rtibia 20.2584
rfoot -15.6015 -5.67514
rtoes 9.74731
lfemur -31.8089 5.61485 -12.0007
ltibia 33.2512
lfoot -7.31728 4.97813
ltoes -14.3713
228
root 16.4864 17.9068 2.32466 513.602 -79.4208 -506.965
lowerback 26.1383 26.5439 17.2303
upperback 9.56886 39.7383 12.6459
thorax -177.884 115.117 -4.3449
lowerneck 29.3471 31.8205 21.3328
upperneck -38.013 76.7273 -46.0399
head 300.093 123.521 171.029
rclavicle 8.28932e-014 -2.0276e-014
rhumerus 65.1828 -2.14997 105.452
rradius 106.452
rwrist -56.9644
rhand -19.3909 -67.9946
rfingers 7.12502
rthumb 6.92777 97.8612
lclavicle 8.28932e-014 -2.0276e-014
lhumerus 96.3745 2.37194 -116.075
lradius 85.2063
lwrist 61.8381
lhand -12.7226 58.723
lfingers 7.12502
lthumb 13.3606 448.275
rfemur -6.58094 -2.73572 31.1534
rtibia 20.4306
rfoot -15.6977 -5.75513
rtoes 9.75925
lfemur -31.8531 5.50693 -12.052
ltibia 31.7423
lfoot -7.22843 5.05364
ltoes -14.605
229
root 16.3454 17.8978 2.31276 514.361 -79.2655 -507.684
lowerback 26.009 26.6169 16.9952
upperback 9.56287 39.7595 12.5538
thorax -177.813 115.177 -4.232
lowerneck 29.423 31.8667 21.5055
upperneck -37.6293 76.5622 -45.7622
head 299.658 123.584 170.799
rclavicle -8.66701e-014 5.08889e-014
rhumerus 64.3846 -1.76683 105.937
rradius 105.695
rwrist -56.9218
rhand -19.5365 -68.0253
rfingers 7.12502
rthumb 6.78725 97.8965
lclavicle -8.66701e-014 5.08889e-014
lhumerus 97.9069 2.98736 -115.919
lradius 85.6833
lwrist 61.9273
lhand -12.5092 58.6532
lfingers 7.12502
lthumb 13.5663 448.191
rfemur -6.24346 -2.64927 31.0952
rtibia 20.6554
rfoot -15.7901 -5.81027
rtoes 9.72462
lfemur -31.8628 5.36591 -12.1049
ltibia 30.2698
lfoot -7.11429 5.09925
ltoes -14.8429
230
root 16.2025 17.8884 2.30104 515.069 -79.1218 -508.36
lowerback 25.8756 26.6838 16.754
upperback 9.55665 39.7766 12.4591
thorax -177.739 115.243 -4.11621
lowerneck 29.4875 31.8995 21.6604
upperneck -37.2342 76.3943 -45.4629
head 299.208 123.603 170.53
rclavicle -5.76476e-014 -1.21259e-014
rhumerus 63.6347 -1.38487 106.41
rradius 104.928
rwrist -56.8694
rhand -19.6579 -68.0807
rfingers 7.12502
rthumb 6.67011 97.9556
lclavicle -5.76476e-014 -1.21259e-014
lhumerus 99.4426 3.57461 -115.751
lradius 86.1468
lwrist 62.0032
lhand -12.2866 58.5503
lfingers 7.12502
lthumb 13.7808 448.074
rfemur -5.92203 -2.58673 31.0211
rtibia 20.9362
rfoot -15.8755 -5.83709
rtoes 9.62421
lfemur -31.8352 5.19025 -12.1605
ltibia 28.8425
lfoot -6.97726 5.12337
ltoes -15.0775
231
root 16.0578 17.8787 2.28948 515.738 -78.993 -509.007
lowerback 25.7212 26.7476 16.5061
upperback 9.53954 39.7767 12.3528
thorax -177.667 115.326 -3.99858
lowerneck 29.5334 31.919 21.7889
upperneck -36.8221 76.2319 -45.128
head 298.774 123.576 170.226
rclavicle 8.46823e-014 -7.31528e-014
rhumerus 62.9148 -1.00453 106.877
rradius 104.157
rwrist -56.819
rhand -19.764 -68.1655
rfingers 7.12502
rthumb 6.56764 98.0437
lclavicle 8.46823e-014 -7.31528e-014
lhumerus 100.96 4.11695 -115.57
lradius 86.5978
lwrist 62.07
lhand -12.064 58.4108
lfingers 7.12502
lthumb 13.9953 447.92
rfemur -5.61959 -2.54991 30.9265
rtibia 21.2767
rfoot -15.9508 -5.83311
rtoes 9.46314
lfemur -31.7748 4.97758 -12.2222
ltibia 27.4749
lfoot -6.81982 5.1357
ltoes -15.2845
232
root 15.9113 17.869 2.27806 516.371 -78.8795 -509.626
lowerback 25.5539 26.806 16.2502
upperback 9.5171 39.766 12.2388
thorax -177.595 115.419 -3.87785
lowerneck 29.5624 31.9236 21.8929
upperneck -36.3951 76.0714 -44.7614
head 298.342 123.5 169.882
rclavicle -1.49089e-014 -8.74653e-015
rhumerus 62.2314 -0.626479 107.333
rradius 103.386
rwrist -56.7759
rhand -19.8608 -68.2687
rfingers 7.12502
rthumb 6.47419 98.1498
lclavicle -1.49089e-014 -8.74653e-015
lhumerus 102.456 4.61543 -115.383
lradius 87.0358
lwrist 62.1248
lhand -11.842 58.2336
lfingers 7.12502
lthumb 14.2093 447.728
rfemur -5.33819 -2.5387 30.8103
rtibia 21.6795
rfoot -16.0132 -5.7949
rtoes 9.24821
lfemur -31.684 4.72459 -12.2899
ltibia 26.1805
lfoot -6.65435 5.14244
ltoes -15.451
